<svg width="19" height="18" viewBox="0 0 19 18" fill="none" xmlns="http://www.w3.org/2000/svg">
<path d="M9.5 0C14.4706 0 18.5 4.02944 18.5 9C18.5 13.9706 14.4706 18 9.5 18C4.52944 18 0.5 13.9706 0.5 9C0.5 4.02944 4.52944 0 9.5 0ZM9.5 1C5.08172 1 1.5 4.58172 1.5 9C1.5 13.4183 5.08172 17 9.5 17C13.9183 17 17.5 13.4183 17.5 9C17.5 4.58172 13.9183 1 9.5 1ZM13.9258 6.40527C14.2545 6.36425 14.5546 6.59706 14.5957 6.92578C14.6366 7.25446 14.4029 7.55462 14.0742 7.5957L11 7.97949V10.3857L12.5566 14.2773L12.5908 14.3936C12.6406 14.6683 12.4919 14.9499 12.2227 15.0576C11.9535 15.1651 11.6524 15.0632 11.499 14.8301L11.4434 14.7227L10.04 11.2158L9.87109 11.1484C9.63286 11.0532 9.36714 11.0532 9.12891 11.1484L8.95898 11.2158L7.55664 14.7227L7.50098 14.8301C7.34759 15.0632 7.04655 15.1651 6.77734 15.0576C6.50806 14.9499 6.35946 14.6683 6.40918 14.3936L6.44336 14.2773L8 10.3857V7.97949L4.92578 7.5957C4.59706 7.55462 4.36336 7.25449 4.4043 6.92578C4.44544 6.59707 4.74549 6.36426 5.07422 6.40527L9.04297 6.90039H9.95703L13.9258 6.40527ZM9.5 3C10.3284 3 11 3.67157 11 4.5C11 5.32843 10.3284 6 9.5 6C8.67157 6 8 5.32843 8 4.5C8 3.67157 8.67157 3 9.5 3Z" fill="white"/>
</svg>
