<svg width="5" height="5" viewBox="0 0 5 5" fill="none" xmlns="http://www.w3.org/2000/svg">
<path fill-rule="evenodd" clip-rule="evenodd" d="M1.35355 0.646443C1.15829 0.451181 0.841705 0.451181 0.646443 0.646443C0.451181 0.841705 0.451181 1.15829 0.646443 1.35355L1.79289 2.5L0.646443 3.64644C0.451181 3.8417 0.451181 4.15829 0.646443 4.35355C0.841705 4.54881 1.15829 4.54881 1.35355 4.35355L2.5 3.2071L3.64644 4.35355C3.8417 4.54881 4.15829 4.54881 4.35355 4.35355C4.54881 4.15829 4.54881 3.8417 4.35355 3.64644L3.2071 2.5L4.35355 1.35355C4.54881 1.15829 4.54881 0.841705 4.35355 0.646443C4.15829 0.451181 3.8417 0.451181 3.64644 0.646443L2.5 1.79289L1.35355 0.646443Z" fill="white"/>
</svg>
