<svg width="20" height="20" viewBox="0 0 20 20" fill="none" xmlns="http://www.w3.org/2000/svg">
<rect width="20" height="20" rx="2" fill="url(#paint0_linear_17_4)"/>
<path d="M5.768 15.76C5.248 15.76 4.728 15.684 4.208 15.532C3.696 15.38 3.28 15.184 2.96 14.944L3.632 13.6C3.8 13.712 3.984 13.808 4.184 13.888C4.392 13.976 4.60801 14.044 4.83201 14.092C5.05601 14.14 5.284 14.164 5.516 14.164C5.924 14.164 6.256 14.104 6.512 13.984C6.768 13.864 6.96 13.68 7.08801 13.432C7.21601 13.192 7.28 12.888 7.28 12.52V11.452L7.652 11.512C7.596 11.776 7.45601 12.016 7.23201 12.232C7.01601 12.448 6.748 12.624 6.428 12.76C6.108 12.888 5.768 12.952 5.408 12.952C4.832 12.952 4.316 12.82 3.86 12.556C3.412 12.284 3.056 11.912 2.792 11.44C2.536 10.96 2.408 10.408 2.408 9.784C2.408 9.144 2.536 8.58 2.792 8.092C3.048 7.596 3.4 7.20799 3.848 6.92799C4.296 6.63999 4.8 6.49599 5.36 6.49599C5.6 6.49599 5.828 6.52399 6.044 6.57999C6.268 6.636 6.472 6.712 6.656 6.80799C6.84801 6.896 7.016 7.004 7.16 7.13199C7.31201 7.25199 7.432 7.38399 7.52 7.52799C7.616 7.67199 7.68001 7.81999 7.712 7.97199L7.316 8.068L7.38801 6.628H9.212V12.484C9.212 13.004 9.132 13.464 8.972 13.864C8.82 14.272 8.59201 14.616 8.28801 14.896C7.99201 15.184 7.632 15.4 7.208 15.544C6.78401 15.688 6.304 15.76 5.768 15.76ZM5.816 11.464C6.12801 11.464 6.39601 11.396 6.62001 11.26C6.85201 11.116 7.02801 10.92 7.14801 10.672C7.276 10.424 7.34 10.132 7.34 9.79599C7.34 9.45999 7.276 9.168 7.14801 8.92C7.02801 8.664 6.85201 8.468 6.62001 8.332C6.39601 8.18799 6.12801 8.116 5.816 8.116C5.512 8.116 5.248 8.18799 5.024 8.332C4.8 8.468 4.624 8.664 4.496 8.92C4.376 9.168 4.316 9.45999 4.316 9.79599C4.316 10.132 4.376 10.424 4.496 10.672C4.624 10.92 4.8 11.116 5.024 11.26C5.248 11.396 5.512 11.464 5.816 11.464Z" fill="white"/>
<path d="M10.1833 6.064V4.63599H14.0953V6.064H10.1833ZM10.8793 13V4.12H12.7633V7.924L12.3793 8.068C12.4673 7.77999 12.6233 7.51999 12.8473 7.288C13.0793 7.04799 13.3553 6.85599 13.6753 6.71199C13.9953 6.56799 14.3313 6.49599 14.6833 6.49599C15.1633 6.49599 15.5673 6.59599 15.8953 6.79599C16.2233 6.98799 16.4713 7.27999 16.6393 7.67199C16.8073 8.05599 16.8913 8.528 16.8913 9.088V13H14.9593V9.24399C14.9593 8.98799 14.9233 8.776 14.8513 8.608C14.7793 8.43999 14.6673 8.316 14.5153 8.236C14.3713 8.14799 14.1913 8.108 13.9753 8.116C13.8073 8.116 13.6513 8.144 13.5073 8.2C13.3633 8.24799 13.2393 8.324 13.1353 8.428C13.0313 8.524 12.9473 8.63599 12.8833 8.764C12.8273 8.892 12.7993 9.032 12.7993 9.184V13H11.8513C11.6273 13 11.4353 13 11.2753 13C11.1153 13 10.9833 13 10.8793 13Z" fill="white"/>
<path d="M10.384 16.033C10.302 16.033 10.238 16.01 10.192 15.964C10.148 15.918 10.126 15.852 10.126 15.766C10.126 15.686 10.15 15.621 10.198 15.571C10.246 15.521 10.308 15.496 10.384 15.496C10.466 15.496 10.53 15.52 10.576 15.568C10.622 15.614 10.645 15.68 10.645 15.766C10.645 15.844 10.621 15.908 10.573 15.958C10.525 16.008 10.462 16.033 10.384 16.033Z" fill="#2564B7"/>
<path d="M11.6825 16.03C11.5285 16.03 11.3905 15.994 11.2685 15.922C11.1465 15.85 11.0495 15.752 10.9775 15.628C10.9075 15.502 10.8725 15.36 10.8725 15.202C10.8725 15.044 10.9075 14.903 10.9775 14.779C11.0495 14.653 11.1465 14.554 11.2685 14.482C11.3905 14.41 11.5285 14.374 11.6825 14.374C11.8245 14.374 11.9545 14.399 12.0725 14.449C12.1925 14.499 12.2875 14.569 12.3575 14.659L12.0965 14.971C12.0685 14.939 12.0355 14.909 11.9975 14.881C11.9595 14.853 11.9175 14.831 11.8715 14.815C11.8255 14.799 11.7775 14.791 11.7275 14.791C11.6515 14.791 11.5845 14.809 11.5265 14.845C11.4685 14.879 11.4235 14.927 11.3915 14.989C11.3595 15.051 11.3435 15.122 11.3435 15.202C11.3435 15.278 11.3595 15.347 11.3915 15.409C11.4255 15.471 11.4715 15.52 11.5295 15.556C11.5875 15.592 11.6535 15.61 11.7275 15.61C11.7795 15.61 11.8275 15.604 11.8715 15.592C11.9155 15.578 11.9555 15.558 11.9915 15.532C12.0295 15.506 12.0645 15.474 12.0965 15.436L12.3545 15.751C12.2865 15.837 12.1915 15.905 12.0695 15.955C11.9495 16.005 11.8205 16.03 11.6825 16.03Z" fill="#2564B7"/>
<path d="M13.3683 16.03C13.2023 16.03 13.0543 15.994 12.9243 15.922C12.7963 15.85 12.6943 15.752 12.6183 15.628C12.5443 15.504 12.5073 15.362 12.5073 15.202C12.5073 15.042 12.5443 14.9 12.6183 14.776C12.6943 14.652 12.7963 14.554 12.9243 14.482C13.0543 14.41 13.2023 14.374 13.3683 14.374C13.5343 14.374 13.6813 14.41 13.8093 14.482C13.9393 14.554 14.0413 14.652 14.1153 14.776C14.1893 14.9 14.2263 15.042 14.2263 15.202C14.2263 15.362 14.1893 15.504 14.1153 15.628C14.0413 15.752 13.9393 15.85 13.8093 15.922C13.6813 15.994 13.5343 16.03 13.3683 16.03ZM13.3683 15.616C13.4403 15.616 13.5043 15.598 13.5603 15.562C13.6163 15.526 13.6603 15.477 13.6923 15.415C13.7243 15.353 13.7393 15.282 13.7373 15.202C13.7393 15.122 13.7243 15.051 13.6923 14.989C13.6603 14.925 13.6163 14.875 13.5603 14.839C13.5043 14.803 13.4403 14.785 13.3683 14.785C13.2963 14.785 13.2313 14.803 13.1733 14.839C13.1173 14.875 13.0733 14.925 13.0413 14.989C13.0093 15.051 12.9943 15.122 12.9963 15.202C12.9943 15.282 13.0093 15.353 13.0413 15.415C13.0733 15.477 13.1173 15.526 13.1733 15.562C13.2313 15.598 13.2963 15.616 13.3683 15.616Z" fill="#2564B7"/>
<path d="M14.5372 16V14.407H14.9932L15.0082 14.695L14.9452 14.698C14.9692 14.646 14.9992 14.6 15.0352 14.56C15.0732 14.52 15.1152 14.487 15.1612 14.461C15.2092 14.433 15.2582 14.412 15.3082 14.398C15.3602 14.384 15.4122 14.377 15.4642 14.377C15.5422 14.377 15.6132 14.389 15.6772 14.413C15.7412 14.437 15.7972 14.476 15.8452 14.53C15.8932 14.582 15.9312 14.653 15.9592 14.743L15.8842 14.737L15.9082 14.689C15.9342 14.641 15.9672 14.598 16.0072 14.56C16.0492 14.52 16.0952 14.487 16.1452 14.461C16.1952 14.433 16.2472 14.412 16.3012 14.398C16.3552 14.384 16.4072 14.377 16.4572 14.377C16.5832 14.377 16.6882 14.402 16.7722 14.452C16.8562 14.5 16.9192 14.573 16.9612 14.671C17.0052 14.769 17.0272 14.888 17.0272 15.028V16H16.5442V15.067C16.5442 15.003 16.5352 14.95 16.5172 14.908C16.4992 14.866 16.4722 14.835 16.4362 14.815C16.4022 14.793 16.3592 14.782 16.3072 14.782C16.2652 14.782 16.2262 14.789 16.1902 14.803C16.1562 14.817 16.1262 14.836 16.1002 14.86C16.0762 14.884 16.0572 14.912 16.0432 14.944C16.0292 14.976 16.0222 15.012 16.0222 15.052V16H15.5392V15.064C15.5392 15.004 15.5302 14.953 15.5122 14.911C15.4942 14.869 15.4672 14.837 15.4312 14.815C15.3952 14.793 15.3532 14.782 15.3052 14.782C15.2632 14.782 15.2242 14.789 15.1882 14.803C15.1542 14.817 15.1242 14.836 15.0982 14.86C15.0742 14.884 15.0552 14.912 15.0412 14.944C15.0272 14.976 15.0202 15.011 15.0202 15.049V16H14.5372Z" fill="#2564B7"/>
<defs>
<linearGradient id="paint0_linear_17_4" x1="0" y1="0" x2="20" y2="20" gradientUnits="userSpaceOnUse">
<stop stop-color="#151515"/>
<stop offset="1" stop-color="#133158"/>
</linearGradient>
</defs>
</svg>
