<svg width="30" height="30" viewBox="0 0 30 30" fill="none" xmlns="http://www.w3.org/2000/svg">
<rect width="30" height="30" rx="5" fill="url(#paint0_linear_29_3)"/>
<path d="M9.782 21.468C9.158 21.468 8.534 21.3768 7.91 21.1944C7.2956 21.012 6.7964 20.7768 6.4124 20.4888L7.2188 18.876C7.4204 19.0104 7.6412 19.1256 7.8812 19.2216C8.1308 19.3272 8.39 19.4088 8.6588 19.4664C8.9276 19.524 9.2012 19.5528 9.4796 19.5528C9.9692 19.5528 10.3676 19.4808 10.6748 19.3368C10.982 19.1928 11.2124 18.972 11.366 18.6744C11.5196 18.3864 11.5964 18.0216 11.5964 17.58V16.2984L12.0428 16.3704C11.9756 16.6872 11.8076 16.9752 11.5388 17.2344C11.2796 17.4936 10.958 17.7048 10.574 17.868C10.19 18.0216 9.782 18.0984 9.35 18.0984C8.6588 18.0984 8.0396 17.94 7.4924 17.6232C6.9548 17.2968 6.5276 16.8504 6.2108 16.284C5.9036 15.708 5.75 15.0456 5.75 14.2968C5.75 13.5288 5.9036 12.852 6.2108 12.2664C6.518 11.6712 6.9404 11.2056 7.478 10.8696C8.0156 10.524 8.6204 10.3512 9.2924 10.3512C9.5804 10.3512 9.854 10.3848 10.1132 10.452C10.382 10.5192 10.6268 10.6104 10.8476 10.7256C11.078 10.8312 11.2796 10.9608 11.4524 11.1144C11.6348 11.2584 11.7788 11.4168 11.8844 11.5896C11.9996 11.7624 12.0764 11.94 12.1148 12.1224L11.6396 12.2376L11.726 10.5096H13.9148V17.5368C13.9148 18.1608 13.8188 18.7128 13.6268 19.1928C13.4444 19.6824 13.1708 20.0952 12.806 20.4312C12.4508 20.7768 12.0188 21.036 11.51 21.2088C11.0012 21.3816 10.4252 21.468 9.782 21.468ZM9.8396 16.3128C10.214 16.3128 10.5356 16.2312 10.8044 16.068C11.0828 15.8952 11.294 15.66 11.438 15.3624C11.5916 15.0648 11.6684 14.7144 11.6684 14.3112C11.6684 13.908 11.5916 13.5576 11.438 13.26C11.294 12.9528 11.0828 12.7176 10.8044 12.5544C10.5356 12.3816 10.214 12.2952 9.8396 12.2952C9.4748 12.2952 9.158 12.3816 8.8892 12.5544C8.6204 12.7176 8.4092 12.9528 8.2556 13.26C8.1116 13.5576 8.0396 13.908 8.0396 14.3112C8.0396 14.7144 8.1116 15.0648 8.2556 15.3624C8.4092 15.66 8.6204 15.8952 8.8892 16.068C9.158 16.2312 9.4748 16.3128 9.8396 16.3128Z" fill="white"/>
<path d="M15.9156 18.156V7.5H18.1764V12.0648L17.7156 12.2376C17.8212 11.892 18.0084 11.58 18.2772 11.3016C18.5556 11.0136 18.8868 10.7832 19.2708 10.6104C19.6548 10.4376 20.058 10.3512 20.4804 10.3512C21.0564 10.3512 21.5412 10.4712 21.9348 10.7112C22.3284 10.9416 22.626 11.292 22.8276 11.7624C23.0292 12.2232 23.13 12.7896 23.13 13.4616V18.156H20.8116V13.6488C20.8116 13.3416 20.7684 13.0872 20.682 12.8856C20.5956 12.684 20.4612 12.5352 20.2788 12.4392C20.106 12.3336 19.89 12.2856 19.6308 12.2952C19.4292 12.2952 19.242 12.3288 19.0692 12.396C18.8964 12.4536 18.7476 12.5448 18.6228 12.6696C18.498 12.7848 18.3972 12.9192 18.3204 13.0728C18.2532 13.2264 18.2196 13.3944 18.2196 13.5768V18.156H17.082C16.8132 18.156 16.5828 18.156 16.3908 18.156C16.1988 18.156 16.0404 18.156 15.9156 18.156Z" fill="white"/>
<path d="M15.1582 21.468C15.0598 21.468 14.983 21.4404 14.9278 21.3852C14.875 21.33 14.8486 21.2508 14.8486 21.1476C14.8486 21.0516 14.8774 20.9736 14.935 20.9136C14.9926 20.8536 15.067 20.8236 15.1582 20.8236C15.2566 20.8236 15.3334 20.8524 15.3886 20.91C15.4438 20.9652 15.4714 21.0444 15.4714 21.1476C15.4714 21.2412 15.4426 21.318 15.385 21.378C15.3274 21.438 15.2518 21.468 15.1582 21.468Z" fill="#2564B7"/>
<path d="M16.7164 21.4644C16.5316 21.4644 16.366 21.4212 16.2196 21.3348C16.0732 21.2484 15.9568 21.1308 15.8704 20.982C15.7864 20.8308 15.7444 20.6604 15.7444 20.4708C15.7444 20.2812 15.7864 20.112 15.8704 19.9632C15.9568 19.812 16.0732 19.6932 16.2196 19.6068C16.366 19.5204 16.5316 19.4772 16.7164 19.4772C16.8868 19.4772 17.0428 19.5072 17.1844 19.5672C17.3284 19.6272 17.4424 19.7112 17.5264 19.8192L17.2132 20.1936C17.1796 20.1552 17.14 20.1192 17.0944 20.0856C17.0488 20.052 16.9984 20.0256 16.9432 20.0064C16.888 19.9872 16.8304 19.9776 16.7704 19.9776C16.6792 19.9776 16.5988 19.9992 16.5292 20.0424C16.4596 20.0832 16.4056 20.1408 16.3672 20.2152C16.3288 20.2896 16.3096 20.3748 16.3096 20.4708C16.3096 20.562 16.3288 20.6448 16.3672 20.7192C16.408 20.7936 16.4632 20.8524 16.5328 20.8956C16.6024 20.9388 16.6816 20.9604 16.7704 20.9604C16.8328 20.9604 16.8904 20.9532 16.9432 20.9388C16.996 20.922 17.044 20.898 17.0872 20.8668C17.1328 20.8356 17.1748 20.7972 17.2132 20.7516L17.5228 21.1296C17.4412 21.2328 17.3272 21.3144 17.1808 21.3744C17.0368 21.4344 16.882 21.4644 16.7164 21.4644Z" fill="#2564B7"/>
<path d="M18.7394 21.4644C18.5402 21.4644 18.3626 21.4212 18.2066 21.3348C18.053 21.2484 17.9306 21.1308 17.8394 20.982C17.7506 20.8332 17.7062 20.6628 17.7062 20.4708C17.7062 20.2788 17.7506 20.1084 17.8394 19.9596C17.9306 19.8108 18.053 19.6932 18.2066 19.6068C18.3626 19.5204 18.5402 19.4772 18.7394 19.4772C18.9386 19.4772 19.115 19.5204 19.2686 19.6068C19.4246 19.6932 19.547 19.8108 19.6358 19.9596C19.7246 20.1084 19.769 20.2788 19.769 20.4708C19.769 20.6628 19.7246 20.8332 19.6358 20.982C19.547 21.1308 19.4246 21.2484 19.2686 21.3348C19.115 21.4212 18.9386 21.4644 18.7394 21.4644ZM18.7394 20.9676C18.8258 20.9676 18.9026 20.946 18.9698 20.9028C19.037 20.8596 19.0898 20.8008 19.1282 20.7264C19.1666 20.652 19.1846 20.5668 19.1822 20.4708C19.1846 20.3748 19.1666 20.2896 19.1282 20.2152C19.0898 20.1384 19.037 20.0784 18.9698 20.0352C18.9026 19.992 18.8258 19.9704 18.7394 19.9704C18.653 19.9704 18.575 19.992 18.5054 20.0352C18.4382 20.0784 18.3854 20.1384 18.347 20.2152C18.3086 20.2896 18.2906 20.3748 18.293 20.4708C18.2906 20.5668 18.3086 20.652 18.347 20.7264C18.3854 20.8008 18.4382 20.8596 18.5054 20.9028C18.575 20.946 18.653 20.9676 18.7394 20.9676Z" fill="#2564B7"/>
<path d="M20.142 21.4284V19.5168H20.6892L20.7072 19.8624L20.6316 19.866C20.6604 19.8036 20.6964 19.7484 20.7396 19.7004C20.7852 19.6524 20.8356 19.6128 20.8908 19.5816C20.9484 19.548 21.0072 19.5228 21.0672 19.506C21.1296 19.4892 21.192 19.4808 21.2544 19.4808C21.348 19.4808 21.4332 19.4952 21.51 19.524C21.5868 19.5528 21.654 19.5996 21.7116 19.6644C21.7692 19.7268 21.8148 19.812 21.8484 19.92L21.7584 19.9128L21.7872 19.8552C21.8184 19.7976 21.858 19.746 21.906 19.7004C21.9564 19.6524 22.0116 19.6128 22.0716 19.5816C22.1316 19.548 22.194 19.5228 22.2588 19.506C22.3236 19.4892 22.386 19.4808 22.446 19.4808C22.5972 19.4808 22.7232 19.5108 22.824 19.5708C22.9248 19.6284 23.0004 19.716 23.0508 19.8336C23.1036 19.9512 23.13 20.094 23.13 20.262V21.4284H22.5504V20.3088C22.5504 20.232 22.5396 20.1684 22.518 20.118C22.4964 20.0676 22.464 20.0304 22.4208 20.0064C22.38 19.98 22.3284 19.9668 22.266 19.9668C22.2156 19.9668 22.1688 19.9752 22.1256 19.992C22.0848 20.0088 22.0488 20.0316 22.0176 20.0604C21.9888 20.0892 21.966 20.1228 21.9492 20.1612C21.9324 20.1996 21.924 20.2428 21.924 20.2908V21.4284H21.3444V20.3052C21.3444 20.2332 21.3336 20.172 21.312 20.1216C21.2904 20.0712 21.258 20.0328 21.2148 20.0064C21.1716 19.98 21.1212 19.9668 21.0636 19.9668C21.0132 19.9668 20.9664 19.9752 20.9232 19.992C20.8824 20.0088 20.8464 20.0316 20.8152 20.0604C20.7864 20.0892 20.7636 20.1228 20.7468 20.1612C20.73 20.1996 20.7216 20.2416 20.7216 20.2872V21.4284H20.142Z" fill="#2564B7"/>
<defs>
<linearGradient id="paint0_linear_29_3" x1="0" y1="0" x2="30" y2="30" gradientUnits="userSpaceOnUse">
<stop stop-color="#151515"/>
<stop offset="1" stop-color="#133158"/>
</linearGradient>
</defs>
</svg>
