<svg width="26" height="22" viewBox="0 0 26 22" fill="none" xmlns="http://www.w3.org/2000/svg">
<mask id="path-1-outside-1_13_51" maskUnits="userSpaceOnUse" x="0" y="0" width="26" height="22" fill="black">
<rect fill="white" width="26" height="22"/>
<path fill-rule="evenodd" clip-rule="evenodd" d="M13.5293 21C19.0522 21 23.5293 16.5228 23.5293 11C23.5293 9.67191 23.2704 8.40429 22.8003 7.24486L24.4436 4.77996C24.4602 4.75545 24.4746 4.72944 24.4867 4.70222C24.5023 4.667 24.5136 4.63063 24.5206 4.59381C24.5236 4.5778 24.5259 4.5617 24.5273 4.54558C24.5282 4.53604 24.5288 4.5265 24.5291 4.51696C24.5301 4.48734 24.5284 4.45775 24.5242 4.42857C24.5143 4.35976 24.4907 4.29608 24.4565 4.24C24.4224 4.18386 24.3767 4.13366 24.3201 4.09327C24.2925 4.07349 24.2628 4.05649 24.2315 4.04263C24.2041 4.03048 24.176 4.02097 24.1475 4.01405C24.1191 4.00712 24.0897 4.00265 24.0598 4.00085C24.0301 3.99907 24.0004 3.99994 23.971 4.00341L20.9847 4.33522C19.1536 2.28829 16.4919 1 13.5293 1C8.00647 1 3.52931 5.47715 3.52931 11C3.52931 12.5097 3.86386 13.9413 4.46286 15.2246L1.34921 17.8934C0.90694 18.2725 0.881002 18.9479 1.2929 19.3598L2.59415 20.661C3.00605 21.0729 3.68142 21.047 4.06051 20.6047L6.3375 17.9482C8.15585 19.8299 10.7059 21 13.5293 21Z"/>
</mask>
<path fill-rule="evenodd" clip-rule="evenodd" d="M13.5293 21C19.0522 21 23.5293 16.5228 23.5293 11C23.5293 9.67191 23.2704 8.40429 22.8003 7.24486L24.4436 4.77996C24.4602 4.75545 24.4746 4.72944 24.4867 4.70222C24.5023 4.667 24.5136 4.63063 24.5206 4.59381C24.5236 4.5778 24.5259 4.5617 24.5273 4.54558C24.5282 4.53604 24.5288 4.5265 24.5291 4.51696C24.5301 4.48734 24.5284 4.45775 24.5242 4.42857C24.5143 4.35976 24.4907 4.29608 24.4565 4.24C24.4224 4.18386 24.3767 4.13366 24.3201 4.09327C24.2925 4.07349 24.2628 4.05649 24.2315 4.04263C24.2041 4.03048 24.176 4.02097 24.1475 4.01405C24.1191 4.00712 24.0897 4.00265 24.0598 4.00085C24.0301 3.99907 24.0004 3.99994 23.971 4.00341L20.9847 4.33522C19.1536 2.28829 16.4919 1 13.5293 1C8.00647 1 3.52931 5.47715 3.52931 11C3.52931 12.5097 3.86386 13.9413 4.46286 15.2246L1.34921 17.8934C0.90694 18.2725 0.881002 18.9479 1.2929 19.3598L2.59415 20.661C3.00605 21.0729 3.68142 21.047 4.06051 20.6047L6.3375 17.9482C8.15585 19.8299 10.7059 21 13.5293 21Z" fill="black"/>
<path d="M22.8003 7.24486L22.3843 6.96751L22.2376 7.18759L22.337 7.43272L22.8003 7.24486ZM24.4436 4.77996L24.0295 4.49979L24.0276 4.50261L24.4436 4.77996ZM24.4867 4.70222L24.0296 4.4995L24.0296 4.4996L24.4867 4.70222ZM24.5206 4.59381L25.0117 4.68737L25.0117 4.68736L24.5206 4.59381ZM24.5273 4.54558L25.0253 4.5907L25.0253 4.5907L24.5273 4.54558ZM24.5291 4.51696L25.0288 4.53344L25.0288 4.53343L24.5291 4.51696ZM24.5242 4.42857L24.0293 4.49972L24.0293 4.50016L24.5242 4.42857ZM24.4565 4.24L24.0292 4.49967L24.0296 4.50021L24.4565 4.24ZM24.3201 4.09327L24.0292 4.4999L24.0296 4.50017L24.3201 4.09327ZM24.2315 4.04263L24.0288 4.49969L24.0289 4.49974L24.2315 4.04263ZM24.1475 4.01405L24.0293 4.49986L24.0294 4.49988L24.1475 4.01405ZM24.0598 4.00085L24.0298 4.49995L24.0299 4.49996L24.0598 4.00085ZM23.971 4.00341L24.0262 4.50036L24.0295 4.49997L23.971 4.00341ZM20.9847 4.33522L20.612 4.66858L20.7838 4.86061L21.0399 4.83216L20.9847 4.33522ZM4.46286 15.2246L4.78825 15.6042L5.07651 15.3571L4.91593 15.0131L4.46286 15.2246ZM1.34921 17.8934L1.02382 17.5138L1.02382 17.5138L1.34921 17.8934ZM1.2929 19.3598L0.939345 19.7133L0.939346 19.7133L1.2929 19.3598ZM2.59415 20.661L2.9477 20.3075L2.9477 20.3075L2.59415 20.661ZM4.06051 20.6047L4.44014 20.9301L4.44014 20.9301L4.06051 20.6047ZM6.3375 17.9482L6.69705 17.6008L6.31535 17.2058L5.95787 17.6228L6.3375 17.9482ZM23.0293 11C23.0293 16.2467 18.776 20.5 13.5293 20.5V21.5C19.3283 21.5 24.0293 16.799 24.0293 11H23.0293ZM22.337 7.43272C22.7833 8.53349 23.0293 9.73739 23.0293 11H24.0293C24.0293 9.60643 23.7576 8.27509 23.2637 7.05699L22.337 7.43272ZM23.2164 7.52221L24.8596 5.05731L24.0276 4.50261L22.3843 6.96751L23.2164 7.52221ZM24.8577 5.06013C24.8908 5.01122 24.9197 4.95928 24.9438 4.90485L24.0296 4.4996L24.0295 4.4998L24.8577 5.06013ZM24.9437 4.90495C24.9751 4.83434 24.9976 4.7613 25.0117 4.68737L24.0294 4.50025L24.0296 4.4995L24.9437 4.90495ZM25.0117 4.68736C25.0178 4.65526 25.0224 4.623 25.0253 4.5907L24.0294 4.50045L24.0294 4.50026L25.0117 4.68736ZM25.0253 4.5907C25.027 4.57159 25.0282 4.55249 25.0288 4.53344L24.0294 4.50047L24.0294 4.50046L25.0253 4.5907ZM25.0288 4.53343C25.0308 4.47422 25.0275 4.41516 25.019 4.35697L24.0293 4.50016L24.0294 4.50048L25.0288 4.53343ZM25.0191 4.35742C24.9994 4.22031 24.9522 4.09248 24.8835 3.97978L24.0296 4.50021L24.0293 4.49972L25.0191 4.35742ZM24.8838 3.98032C24.8153 3.86753 24.7234 3.76686 24.6107 3.68636L24.0296 4.50017L24.0292 4.49967L24.8838 3.98032ZM24.6111 3.68664C24.5559 3.6472 24.4967 3.61325 24.4341 3.58552L24.0289 4.49974L24.0292 4.4999L24.6111 3.68664ZM24.4343 3.58557C24.3793 3.56121 24.3229 3.54212 24.2657 3.52821L24.0294 4.49988L24.0288 4.49969L24.4343 3.58557ZM24.2658 3.52823C24.2086 3.51431 24.1497 3.50535 24.0897 3.50175L24.0299 4.49996L24.0293 4.49986L24.2658 3.52823ZM24.0899 3.50176C24.0304 3.49818 23.971 3.49994 23.9124 3.50685L24.0295 4.49997L24.0298 4.49995L24.0899 3.50176ZM23.9158 3.50647L20.9295 3.83828L21.0399 4.83216L24.0262 4.50035L23.9158 3.50647ZM13.5293 1.5C16.3437 1.5 18.8718 2.7232 20.612 4.66858L21.3573 4.00185C19.4354 1.85338 16.6401 0.5 13.5293 0.5V1.5ZM4.02931 11C4.02931 5.75329 8.28261 1.5 13.5293 1.5V0.5C7.73032 0.5 3.02931 5.20101 3.02931 11H4.02931ZM4.91593 15.0131C4.3472 13.7946 4.02931 12.4351 4.02931 11H3.02931C3.02931 12.5843 3.38051 14.0879 4.00978 15.4361L4.91593 15.0131ZM4.13746 14.845L1.02382 17.5138L1.67461 18.273L4.78825 15.6042L4.13746 14.845ZM1.02382 17.5138C0.360407 18.0824 0.3215 19.0955 0.939345 19.7133L1.64645 19.0062C1.4405 18.8003 1.45347 18.4626 1.67461 18.273L1.02382 17.5138ZM0.939346 19.7133L2.2406 21.0146L2.9477 20.3075L1.64645 19.0062L0.939346 19.7133ZM2.2406 21.0146C2.85844 21.6324 3.8715 21.5935 4.44014 20.9301L3.68088 20.2793C3.49134 20.5005 3.15365 20.5134 2.9477 20.3075L2.2406 21.0146ZM4.44014 20.9301L6.71713 18.2736L5.95787 17.6228L3.68088 20.2793L4.44014 20.9301ZM13.5293 20.5C10.847 20.5 8.42509 19.389 6.69705 17.6008L5.97794 18.2957C7.88661 20.2708 10.5648 21.5 13.5293 21.5V20.5Z" fill="white" mask="url(#path-1-outside-1_13_51)"/>
<path d="M9.268 16.26C8.748 16.26 8.228 16.184 7.708 16.032C7.196 15.88 6.78 15.684 6.46 15.444L7.132 14.1C7.3 14.212 7.484 14.308 7.684 14.388C7.892 14.476 8.108 14.544 8.332 14.592C8.556 14.64 8.784 14.664 9.016 14.664C9.424 14.664 9.756 14.604 10.012 14.484C10.268 14.364 10.46 14.18 10.588 13.932C10.716 13.692 10.78 13.388 10.78 13.02V11.952L11.152 12.012C11.096 12.276 10.956 12.516 10.732 12.732C10.516 12.948 10.248 13.124 9.928 13.26C9.608 13.388 9.268 13.452 8.908 13.452C8.332 13.452 7.816 13.32 7.36 13.056C6.912 12.784 6.556 12.412 6.292 11.94C6.036 11.46 5.908 10.908 5.908 10.284C5.908 9.644 6.036 9.08 6.292 8.592C6.548 8.096 6.9 7.708 7.348 7.428C7.796 7.14 8.3 6.996 8.86 6.996C9.1 6.996 9.328 7.024 9.544 7.08C9.768 7.136 9.972 7.212 10.156 7.308C10.348 7.396 10.516 7.504 10.66 7.632C10.812 7.752 10.932 7.884 11.02 8.028C11.116 8.172 11.18 8.32 11.212 8.472L10.816 8.568L10.888 7.128H12.712V12.984C12.712 13.504 12.632 13.964 12.472 14.364C12.32 14.772 12.092 15.116 11.788 15.396C11.492 15.684 11.132 15.9 10.708 16.044C10.284 16.188 9.804 16.26 9.268 16.26ZM9.316 11.964C9.628 11.964 9.896 11.896 10.12 11.76C10.352 11.616 10.528 11.42 10.648 11.172C10.776 10.924 10.84 10.632 10.84 10.296C10.84 9.96 10.776 9.668 10.648 9.42C10.528 9.164 10.352 8.968 10.12 8.832C9.896 8.688 9.628 8.616 9.316 8.616C9.012 8.616 8.748 8.688 8.524 8.832C8.3 8.968 8.124 9.164 7.996 9.42C7.876 9.668 7.816 9.96 7.816 10.296C7.816 10.632 7.876 10.924 7.996 11.172C8.124 11.42 8.3 11.616 8.524 11.76C8.748 11.896 9.012 11.964 9.316 11.964ZM13.6833 6.564V5.136H17.5953V6.564H13.6833ZM14.3793 13.5V4.62H16.2633V8.424L15.8793 8.568C15.9673 8.28 16.1233 8.02 16.3473 7.788C16.5793 7.548 16.8553 7.356 17.1753 7.212C17.4953 7.068 17.8313 6.996 18.1833 6.996C18.6633 6.996 19.0673 7.096 19.3953 7.296C19.7233 7.488 19.9713 7.78 20.1393 8.172C20.3073 8.556 20.3913 9.028 20.3913 9.588V13.5H18.4593V9.744C18.4593 9.488 18.4233 9.276 18.3513 9.108C18.2793 8.94 18.1673 8.816 18.0153 8.736C17.8713 8.648 17.6913 8.608 17.4753 8.616C17.3073 8.616 17.1513 8.644 17.0073 8.7C16.8633 8.748 16.7393 8.824 16.6353 8.928C16.5313 9.024 16.4473 9.136 16.3833 9.264C16.3273 9.392 16.2993 9.532 16.2993 9.684V13.5H15.3513C15.1273 13.5 14.9353 13.5 14.7753 13.5C14.6153 13.5 14.4833 13.5 14.3793 13.5Z" fill="white"/>
<path d="M13.884 16.533C13.802 16.533 13.738 16.51 13.692 16.464C13.648 16.418 13.626 16.352 13.626 16.266C13.626 16.186 13.65 16.121 13.698 16.071C13.746 16.021 13.808 15.996 13.884 15.996C13.966 15.996 14.03 16.02 14.076 16.068C14.122 16.114 14.145 16.18 14.145 16.266C14.145 16.344 14.121 16.408 14.073 16.458C14.025 16.508 13.962 16.533 13.884 16.533ZM15.1825 16.53C15.0285 16.53 14.8905 16.494 14.7685 16.422C14.6465 16.35 14.5495 16.252 14.4775 16.128C14.4075 16.002 14.3725 15.86 14.3725 15.702C14.3725 15.544 14.4075 15.403 14.4775 15.279C14.5495 15.153 14.6465 15.054 14.7685 14.982C14.8905 14.91 15.0285 14.874 15.1825 14.874C15.3245 14.874 15.4545 14.899 15.5725 14.949C15.6925 14.999 15.7875 15.069 15.8575 15.159L15.5965 15.471C15.5685 15.439 15.5355 15.409 15.4975 15.381C15.4595 15.353 15.4175 15.331 15.3715 15.315C15.3255 15.299 15.2775 15.291 15.2275 15.291C15.1515 15.291 15.0845 15.309 15.0265 15.345C14.9685 15.379 14.9235 15.427 14.8915 15.489C14.8595 15.551 14.8435 15.622 14.8435 15.702C14.8435 15.778 14.8595 15.847 14.8915 15.909C14.9255 15.971 14.9715 16.02 15.0295 16.056C15.0875 16.092 15.1535 16.11 15.2275 16.11C15.2795 16.11 15.3275 16.104 15.3715 16.092C15.4155 16.078 15.4555 16.058 15.4915 16.032C15.5295 16.006 15.5645 15.974 15.5965 15.936L15.8545 16.251C15.7865 16.337 15.6915 16.405 15.5695 16.455C15.4495 16.505 15.3205 16.53 15.1825 16.53ZM16.8683 16.53C16.7023 16.53 16.5543 16.494 16.4243 16.422C16.2963 16.35 16.1943 16.252 16.1183 16.128C16.0443 16.004 16.0073 15.862 16.0073 15.702C16.0073 15.542 16.0443 15.4 16.1183 15.276C16.1943 15.152 16.2963 15.054 16.4243 14.982C16.5543 14.91 16.7023 14.874 16.8683 14.874C17.0343 14.874 17.1813 14.91 17.3093 14.982C17.4393 15.054 17.5413 15.152 17.6153 15.276C17.6893 15.4 17.7263 15.542 17.7263 15.702C17.7263 15.862 17.6893 16.004 17.6153 16.128C17.5413 16.252 17.4393 16.35 17.3093 16.422C17.1813 16.494 17.0343 16.53 16.8683 16.53ZM16.8683 16.116C16.9403 16.116 17.0043 16.098 17.0603 16.062C17.1163 16.026 17.1603 15.977 17.1923 15.915C17.2243 15.853 17.2393 15.782 17.2373 15.702C17.2393 15.622 17.2243 15.551 17.1923 15.489C17.1603 15.425 17.1163 15.375 17.0603 15.339C17.0043 15.303 16.9403 15.285 16.8683 15.285C16.7963 15.285 16.7313 15.303 16.6733 15.339C16.6173 15.375 16.5733 15.425 16.5413 15.489C16.5093 15.551 16.4943 15.622 16.4963 15.702C16.4943 15.782 16.5093 15.853 16.5413 15.915C16.5733 15.977 16.6173 16.026 16.6733 16.062C16.7313 16.098 16.7963 16.116 16.8683 16.116ZM18.0371 16.5V14.907H18.4931L18.5081 15.195L18.4451 15.198C18.4691 15.146 18.4991 15.1 18.5351 15.06C18.5731 15.02 18.6151 14.987 18.6611 14.961C18.7091 14.933 18.7581 14.912 18.8081 14.898C18.8601 14.884 18.9121 14.877 18.9641 14.877C19.0421 14.877 19.1131 14.889 19.1771 14.913C19.2411 14.937 19.2971 14.976 19.3451 15.03C19.3931 15.082 19.4311 15.153 19.4591 15.243L19.3841 15.237L19.4081 15.189C19.4341 15.141 19.4671 15.098 19.5071 15.06C19.5491 15.02 19.5951 14.987 19.6451 14.961C19.6951 14.933 19.7471 14.912 19.8011 14.898C19.8551 14.884 19.9071 14.877 19.9571 14.877C20.0831 14.877 20.1881 14.902 20.2721 14.952C20.3561 15 20.4191 15.073 20.4611 15.171C20.5051 15.269 20.5271 15.388 20.5271 15.528V16.5H20.0441V15.567C20.0441 15.503 20.0351 15.45 20.0171 15.408C19.9991 15.366 19.9721 15.335 19.9361 15.315C19.9021 15.293 19.8591 15.282 19.8071 15.282C19.7651 15.282 19.7261 15.289 19.6901 15.303C19.6561 15.317 19.6261 15.336 19.6001 15.36C19.5761 15.384 19.5571 15.412 19.5431 15.444C19.5291 15.476 19.5221 15.512 19.5221 15.552V16.5H19.0391V15.564C19.0391 15.504 19.0301 15.453 19.0121 15.411C18.9941 15.369 18.9671 15.337 18.9311 15.315C18.8951 15.293 18.8531 15.282 18.8051 15.282C18.7631 15.282 18.7241 15.289 18.6881 15.303C18.6541 15.317 18.6241 15.336 18.5981 15.36C18.5741 15.384 18.5551 15.412 18.5411 15.444C18.5271 15.476 18.5201 15.511 18.5201 15.549V16.5H18.0371Z" fill="#2564B7"/>
</svg>
