<svg width="66" height="12" viewBox="0 0 66 12" fill="none" xmlns="http://www.w3.org/2000/svg">
<path d="M3.768 11.76C3.248 11.76 2.728 11.684 2.208 11.532C1.696 11.38 1.28 11.184 0.960005 10.944L1.632 9.59999C1.8 9.71199 1.984 9.80799 2.184 9.88799C2.392 9.97599 2.60801 10.044 2.83201 10.092C3.05601 10.14 3.284 10.164 3.516 10.164C3.924 10.164 4.256 10.104 4.512 9.98399C4.768 9.86399 4.96 9.67999 5.08801 9.43199C5.21601 9.19199 5.28 8.88799 5.28 8.51999V7.45199L5.652 7.51199C5.596 7.77599 5.45601 8.01599 5.23201 8.23199C5.01601 8.44799 4.748 8.62399 4.428 8.75999C4.108 8.88799 3.768 8.95199 3.408 8.95199C2.832 8.95199 2.316 8.81999 1.86 8.55599C1.412 8.28399 1.056 7.91199 0.792005 7.43999C0.536005 6.95999 0.408005 6.40799 0.408005 5.78399C0.408005 5.14399 0.536005 4.57999 0.792005 4.09199C1.048 3.59599 1.4 3.20799 1.848 2.92799C2.296 2.63999 2.8 2.49599 3.36 2.49599C3.6 2.49599 3.828 2.52399 4.044 2.57999C4.268 2.63599 4.472 2.71199 4.656 2.80799C4.84801 2.89599 5.016 3.00399 5.16 3.13199C5.31201 3.25199 5.432 3.38399 5.52 3.52799C5.616 3.67199 5.68001 3.81999 5.712 3.97199L5.316 4.06799L5.38801 2.62799H7.212V8.48399C7.212 9.00399 7.132 9.46399 6.972 9.86399C6.82 10.272 6.59201 10.616 6.28801 10.896C5.99201 11.184 5.632 11.4 5.208 11.544C4.78401 11.688 4.304 11.76 3.768 11.76ZM3.816 7.46399C4.12801 7.46399 4.39601 7.39599 4.62001 7.25999C4.85201 7.11599 5.02801 6.91999 5.14801 6.67199C5.276 6.42399 5.34 6.13199 5.34 5.79599C5.34 5.45999 5.276 5.16799 5.14801 4.91999C5.02801 4.66399 4.85201 4.46799 4.62001 4.33199C4.39601 4.18799 4.12801 4.11599 3.816 4.11599C3.512 4.11599 3.248 4.18799 3.024 4.33199C2.8 4.46799 2.624 4.66399 2.496 4.91999C2.376 5.16799 2.316 5.45999 2.316 5.79599C2.316 6.13199 2.376 6.42399 2.496 6.67199C2.624 6.91999 2.8 7.11599 3.024 7.25999C3.248 7.39599 3.512 7.46399 3.816 7.46399Z" fill="white"/>
<path d="M8.18335 2.06399V0.635993H12.0953V2.06399H8.18335ZM8.87935 8.99999V0.119993H10.7633V3.92399L10.3793 4.06799C10.4673 3.77999 10.6233 3.51999 10.8473 3.28799C11.0793 3.04799 11.3553 2.85599 11.6753 2.71199C11.9953 2.56799 12.3313 2.49599 12.6833 2.49599C13.1633 2.49599 13.5673 2.59599 13.8953 2.79599C14.2233 2.98799 14.4713 3.27999 14.6393 3.67199C14.8073 4.05599 14.8913 4.52799 14.8913 5.08799V8.99999H12.9593V5.24399C12.9593 4.98799 12.9233 4.77599 12.8513 4.60799C12.7793 4.43999 12.6673 4.31599 12.5153 4.23599C12.3713 4.14799 12.1913 4.10799 11.9753 4.11599C11.8073 4.11599 11.6513 4.14399 11.5073 4.19999C11.3633 4.24799 11.2393 4.32399 11.1353 4.42799C11.0313 4.52399 10.9473 4.63599 10.8833 4.76399C10.8273 4.89199 10.7993 5.03199 10.7993 5.18399V8.99999H9.85135C9.62735 8.99999 9.43535 8.99999 9.27535 8.99999C9.11535 8.99999 8.98335 8.99999 8.87935 8.99999Z" fill="white"/>
<path d="M18.8485 9.10799C18.3125 9.10799 17.8325 8.96799 17.4085 8.68799C16.9925 8.39999 16.6605 8.00799 16.4125 7.51199C16.1645 7.00799 16.0405 6.43999 16.0405 5.80799C16.0405 5.15999 16.1645 4.58799 16.4125 4.09199C16.6605 3.59599 17.0005 3.20799 17.4325 2.92799C17.8645 2.63999 18.3565 2.49599 18.9085 2.49599C19.2125 2.49599 19.4885 2.53999 19.7365 2.62799C19.9925 2.71599 20.2165 2.83999 20.4085 2.99999C20.6005 3.15199 20.7645 3.33199 20.9005 3.53999C21.0365 3.73999 21.1365 3.95599 21.2005 4.18799L20.8045 4.13999V2.62799H22.7125V8.99999H20.7685V7.46399L21.2005 7.45199C21.1365 7.67599 21.0325 7.88799 20.8885 8.08799C20.7445 8.28799 20.5685 8.46399 20.3605 8.61599C20.1525 8.76799 19.9205 8.88799 19.6645 8.97599C19.4085 9.06399 19.1365 9.10799 18.8485 9.10799ZM19.3765 7.48799C19.6725 7.48799 19.9285 7.41999 20.1445 7.28399C20.3605 7.14799 20.5285 6.95599 20.6485 6.70799C20.7685 6.45199 20.8285 6.15199 20.8285 5.80799C20.8285 5.46399 20.7685 5.16799 20.6485 4.91999C20.5285 4.66399 20.3605 4.46799 20.1445 4.33199C19.9285 4.18799 19.6725 4.11599 19.3765 4.11599C19.0885 4.11599 18.8365 4.18799 18.6205 4.33199C18.4125 4.46799 18.2485 4.66399 18.1285 4.91999C18.0085 5.16799 17.9485 5.46399 17.9485 5.80799C17.9485 6.15199 18.0085 6.45199 18.1285 6.70799C18.2485 6.95599 18.4125 7.14799 18.6205 7.28399C18.8365 7.41999 19.0885 7.48799 19.3765 7.48799Z" fill="white"/>
<path d="M26.5547 9.11999C25.9307 9.11999 25.3787 9.01999 24.8987 8.81999C24.4267 8.61999 24.0507 8.35199 23.7707 8.01599L24.9347 7.00799C25.1827 7.25599 25.4627 7.43999 25.7747 7.55999C26.0867 7.67199 26.3827 7.72799 26.6627 7.72799C26.7747 7.72799 26.8747 7.71599 26.9627 7.69199C27.0507 7.66799 27.1227 7.63599 27.1787 7.59599C27.2427 7.54799 27.2907 7.49599 27.3227 7.43999C27.3547 7.37599 27.3707 7.30399 27.3707 7.22399C27.3707 7.06399 27.2987 6.93999 27.1547 6.85199C27.0827 6.81199 26.9627 6.76399 26.7947 6.70799C26.6267 6.65199 26.4107 6.58799 26.1467 6.51599C25.7707 6.41999 25.4427 6.30799 25.1627 6.17999C24.8907 6.04399 24.6667 5.88799 24.4907 5.71199C24.3307 5.54399 24.2067 5.35999 24.1187 5.15999C24.0307 4.95199 23.9867 4.71999 23.9867 4.46399C23.9867 4.16799 24.0547 3.89999 24.1907 3.65999C24.3347 3.41999 24.5227 3.21199 24.7547 3.03599C24.9947 2.85999 25.2667 2.72799 25.5707 2.63999C25.8827 2.54399 26.2027 2.49599 26.5307 2.49599C26.8827 2.49599 27.2187 2.53599 27.5387 2.61599C27.8587 2.69599 28.1547 2.80799 28.4267 2.95199C28.7067 3.09599 28.9547 3.26799 29.1707 3.46799L28.1627 4.59599C28.0187 4.45999 27.8547 4.33999 27.6707 4.23599C27.4947 4.12399 27.3107 4.03599 27.1187 3.97199C26.9267 3.90799 26.7507 3.87599 26.5907 3.87599C26.4707 3.87599 26.3627 3.88799 26.2667 3.91199C26.1787 3.92799 26.1027 3.95999 26.0387 4.00799C25.9747 4.04799 25.9267 4.09999 25.8947 4.16399C25.8627 4.21999 25.8467 4.28799 25.8467 4.36799C25.8467 4.44799 25.8667 4.52399 25.9067 4.59599C25.9547 4.66799 26.0187 4.72799 26.0987 4.77599C26.1787 4.82399 26.3067 4.87999 26.4827 4.94399C26.6587 4.99999 26.8987 5.07199 27.2027 5.15999C27.5787 5.26399 27.9027 5.37999 28.1747 5.50799C28.4467 5.63599 28.6627 5.78799 28.8227 5.96399C28.9507 6.09999 29.0467 6.25999 29.1107 6.44399C29.1747 6.61999 29.2067 6.81199 29.2067 7.01999C29.2067 7.42799 29.0907 7.79199 28.8587 8.11199C28.6347 8.42399 28.3227 8.67199 27.9227 8.85599C27.5227 9.03199 27.0667 9.11999 26.5547 9.11999Z" fill="white"/>
<path d="M32.7001 9.10799C32.1641 9.10799 31.6841 8.96799 31.2601 8.68799C30.8441 8.39999 30.5121 8.00799 30.2641 7.51199C30.0161 7.00799 29.8921 6.43999 29.8921 5.80799C29.8921 5.15999 30.0161 4.58799 30.2641 4.09199C30.5121 3.59599 30.8521 3.20799 31.2841 2.92799C31.7161 2.63999 32.2081 2.49599 32.7601 2.49599C33.0641 2.49599 33.3401 2.53999 33.5881 2.62799C33.8441 2.71599 34.0681 2.83999 34.2601 2.99999C34.4521 3.15199 34.6161 3.33199 34.7521 3.53999C34.8881 3.73999 34.9881 3.95599 35.0521 4.18799L34.6561 4.13999V2.62799H36.5641V8.99999H34.6201V7.46399L35.0521 7.45199C34.9881 7.67599 34.8841 7.88799 34.7401 8.08799C34.5961 8.28799 34.4201 8.46399 34.2121 8.61599C34.0041 8.76799 33.7721 8.88799 33.5161 8.97599C33.2601 9.06399 32.9881 9.10799 32.7001 9.10799ZM33.2281 7.48799C33.5241 7.48799 33.7801 7.41999 33.9961 7.28399C34.2121 7.14799 34.3801 6.95599 34.5001 6.70799C34.6201 6.45199 34.6801 6.15199 34.6801 5.80799C34.6801 5.46399 34.6201 5.16799 34.5001 4.91999C34.3801 4.66399 34.2121 4.46799 33.9961 4.33199C33.7801 4.18799 33.5241 4.11599 33.2281 4.11599C32.9401 4.11599 32.6881 4.18799 32.4721 4.33199C32.2641 4.46799 32.1001 4.66399 31.9801 4.91999C31.8601 5.16799 31.8001 5.46399 31.8001 5.80799C31.8001 6.15199 31.8601 6.45199 31.9801 6.70799C32.1001 6.95599 32.2641 7.14799 32.4721 7.28399C32.6881 7.41999 32.9401 7.48799 33.2281 7.48799Z" fill="white"/>
<path d="M38.6543 8.99999V2.31599C38.6543 1.89999 38.7423 1.52399 38.9183 1.18799C39.1023 0.851993 39.3543 0.587993 39.6743 0.395993C40.0023 0.195993 40.3823 0.095993 40.8143 0.095993C41.1183 0.095993 41.3983 0.139993 41.6543 0.227993C41.9103 0.315993 42.1383 0.439993 42.3383 0.599993L41.7863 2.00399C41.6823 1.94799 41.5823 1.90399 41.4863 1.87199C41.3903 1.83999 41.3023 1.82399 41.2223 1.82399C41.0783 1.82399 40.9583 1.84799 40.8623 1.89599C40.7663 1.94399 40.6943 2.01999 40.6463 2.12399C40.6063 2.21999 40.5863 2.33999 40.5863 2.48399V8.99999H39.6263C39.4103 8.99999 39.2183 8.99999 39.0503 8.99999C38.8903 8.99999 38.7583 8.99999 38.6543 8.99999ZM37.7303 4.39199V2.80799H41.8943V4.39199H37.7303Z" fill="white"/>
<path d="M45.0868 9.10799C44.5508 9.10799 44.0708 8.96799 43.6468 8.68799C43.2308 8.39999 42.8988 8.00799 42.6508 7.51199C42.4028 7.00799 42.2788 6.43999 42.2788 5.80799C42.2788 5.15999 42.4028 4.58799 42.6508 4.09199C42.8988 3.59599 43.2388 3.20799 43.6708 2.92799C44.1028 2.63999 44.5948 2.49599 45.1468 2.49599C45.4508 2.49599 45.7268 2.53999 45.9748 2.62799C46.2308 2.71599 46.4548 2.83999 46.6468 2.99999C46.8388 3.15199 47.0028 3.33199 47.1388 3.53999C47.2748 3.73999 47.3748 3.95599 47.4388 4.18799L47.0428 4.13999V2.62799H48.9508V8.99999H47.0068V7.46399L47.4388 7.45199C47.3748 7.67599 47.2708 7.88799 47.1268 8.08799C46.9828 8.28799 46.8068 8.46399 46.5988 8.61599C46.3908 8.76799 46.1588 8.88799 45.9028 8.97599C45.6468 9.06399 45.3748 9.10799 45.0868 9.10799ZM45.6148 7.48799C45.9108 7.48799 46.1668 7.41999 46.3828 7.28399C46.5988 7.14799 46.7668 6.95599 46.8868 6.70799C47.0068 6.45199 47.0668 6.15199 47.0668 5.80799C47.0668 5.46399 47.0068 5.16799 46.8868 4.91999C46.7668 4.66399 46.5988 4.46799 46.3828 4.33199C46.1668 4.18799 45.9108 4.11599 45.6148 4.11599C45.3268 4.11599 45.0748 4.18799 44.8588 4.33199C44.6508 4.46799 44.4868 4.66399 44.3668 4.91999C44.2468 5.16799 44.1868 5.46399 44.1868 5.80799C44.1868 6.15199 44.2468 6.45199 44.3668 6.70799C44.4868 6.95599 44.6508 7.14799 44.8588 7.28399C45.0748 7.41999 45.3268 7.48799 45.6148 7.48799Z" fill="white"/>
<path d="M50.645 8.99999V2.62799H52.469L52.553 4.70399L52.193 4.30799C52.289 3.96399 52.445 3.65599 52.661 3.38399C52.885 3.11199 53.145 2.89599 53.441 2.73599C53.737 2.57599 54.053 2.49599 54.389 2.49599C54.533 2.49599 54.665 2.50799 54.785 2.53199C54.913 2.55599 55.029 2.58399 55.133 2.61599L54.605 4.73999C54.517 4.68399 54.397 4.63999 54.245 4.60799C54.101 4.56799 53.949 4.54799 53.789 4.54799C53.613 4.54799 53.449 4.57999 53.297 4.64399C53.145 4.69999 53.017 4.78399 52.913 4.89599C52.809 5.00799 52.725 5.13999 52.661 5.29199C52.605 5.44399 52.577 5.61599 52.577 5.80799V8.99999H50.645Z" fill="white"/>
<path d="M54.64 9.05499C54.5033 9.05499 54.3967 9.01666 54.32 8.93999C54.2467 8.86333 54.21 8.75333 54.21 8.60999C54.21 8.47666 54.25 8.36833 54.33 8.28499C54.41 8.20166 54.5133 8.15999 54.64 8.15999C54.7767 8.15999 54.8833 8.19999 54.96 8.27999C55.0367 8.35666 55.075 8.46666 55.075 8.60999C55.075 8.73999 55.035 8.84666 54.955 8.92999C54.875 9.01333 54.77 9.05499 54.64 9.05499Z" fill="#2564B7"/>
<path d="M56.8042 9.04999C56.5475 9.04999 56.3175 8.98999 56.1142 8.86999C55.9109 8.74999 55.7492 8.58666 55.6292 8.37999C55.5125 8.16999 55.4542 7.93333 55.4542 7.66999C55.4542 7.40666 55.5125 7.17166 55.6292 6.96499C55.7492 6.75499 55.9109 6.58999 56.1142 6.46999C56.3175 6.34999 56.5475 6.28999 56.8042 6.28999C57.0409 6.28999 57.2575 6.33166 57.4542 6.41499C57.6542 6.49833 57.8125 6.61499 57.9292 6.76499L57.4942 7.28499C57.4475 7.23166 57.3925 7.18166 57.3292 7.13499C57.2659 7.08833 57.1959 7.05166 57.1192 7.02499C57.0425 6.99833 56.9625 6.98499 56.8792 6.98499C56.7525 6.98499 56.6409 7.01499 56.5442 7.07499C56.4475 7.13166 56.3725 7.21166 56.3192 7.31499C56.2659 7.41833 56.2392 7.53666 56.2392 7.66999C56.2392 7.79666 56.2659 7.91166 56.3192 8.01499C56.3759 8.11833 56.4525 8.19999 56.5492 8.25999C56.6459 8.31999 56.7559 8.34999 56.8792 8.34999C56.9659 8.34999 57.0459 8.33999 57.1192 8.31999C57.1925 8.29666 57.2592 8.26333 57.3192 8.21999C57.3825 8.17666 57.4409 8.12333 57.4942 8.05999L57.9242 8.58499C57.8108 8.72833 57.6525 8.84166 57.4492 8.92499C57.2492 9.00833 57.0342 9.04999 56.8042 9.04999Z" fill="#2564B7"/>
<path d="M59.6138 9.04999C59.3371 9.04999 59.0905 8.98999 58.8738 8.86999C58.6605 8.74999 58.4905 8.58666 58.3638 8.37999C58.2405 8.17333 58.1788 7.93666 58.1788 7.66999C58.1788 7.40333 58.2405 7.16666 58.3638 6.95999C58.4905 6.75333 58.6605 6.58999 58.8738 6.46999C59.0905 6.34999 59.3371 6.28999 59.6138 6.28999C59.8905 6.28999 60.1355 6.34999 60.3488 6.46999C60.5655 6.58999 60.7355 6.75333 60.8588 6.95999C60.9821 7.16666 61.0438 7.40333 61.0438 7.66999C61.0438 7.93666 60.9821 8.17333 60.8588 8.37999C60.7355 8.58666 60.5655 8.74999 60.3488 8.86999C60.1355 8.98999 59.8905 9.04999 59.6138 9.04999ZM59.6138 8.35999C59.7338 8.35999 59.8405 8.32999 59.9338 8.26999C60.0271 8.20999 60.1005 8.12833 60.1538 8.02499C60.2071 7.92166 60.2321 7.80333 60.2288 7.66999C60.2321 7.53666 60.2071 7.41833 60.1538 7.31499C60.1005 7.20833 60.0271 7.12499 59.9338 7.06499C59.8405 7.00499 59.7338 6.97499 59.6138 6.97499C59.4938 6.97499 59.3855 7.00499 59.2888 7.06499C59.1955 7.12499 59.1221 7.20833 59.0688 7.31499C59.0155 7.41833 58.9905 7.53666 58.9938 7.66999C58.9905 7.80333 59.0155 7.92166 59.0688 8.02499C59.1221 8.12833 59.1955 8.20999 59.2888 8.26999C59.3855 8.32999 59.4938 8.35999 59.6138 8.35999Z" fill="#2564B7"/>
<path d="M61.5619 8.99999V6.34499H62.3219L62.3469 6.82499L62.2419 6.82999C62.2819 6.74333 62.3319 6.66666 62.3919 6.59999C62.4552 6.53333 62.5252 6.47833 62.6019 6.43499C62.6819 6.38833 62.7636 6.35333 62.8469 6.32999C62.9336 6.30666 63.0203 6.29499 63.1069 6.29499C63.2369 6.29499 63.3553 6.31499 63.4619 6.35499C63.5686 6.39499 63.6619 6.45999 63.7419 6.54999C63.8219 6.63666 63.8853 6.75499 63.9319 6.90499L63.8069 6.89499L63.8469 6.81499C63.8903 6.73499 63.9453 6.66333 64.0119 6.59999C64.0819 6.53333 64.1586 6.47833 64.2419 6.43499C64.3253 6.38833 64.4119 6.35333 64.5019 6.32999C64.5919 6.30666 64.6786 6.29499 64.7619 6.29499C64.9719 6.29499 65.1469 6.33666 65.2869 6.41999C65.4269 6.49999 65.5319 6.62166 65.6019 6.78499C65.6753 6.94833 65.7119 7.14666 65.7119 7.37999V8.99999H64.9069V7.44499C64.9069 7.33833 64.8919 7.24999 64.8619 7.17999C64.8319 7.10999 64.7869 7.05833 64.7269 7.02499C64.6703 6.98833 64.5986 6.96999 64.5119 6.96999C64.4419 6.96999 64.3769 6.98166 64.3169 7.00499C64.2603 7.02833 64.2103 7.05999 64.1669 7.09999C64.1269 7.13999 64.0953 7.18666 64.0719 7.23999C64.0486 7.29333 64.0369 7.35333 64.0369 7.41999V8.99999H63.2319V7.43999C63.2319 7.33999 63.2169 7.25499 63.1869 7.18499C63.1569 7.11499 63.1119 7.06166 63.0519 7.02499C62.9919 6.98833 62.9219 6.96999 62.8419 6.96999C62.7719 6.96999 62.7069 6.98166 62.6469 7.00499C62.5903 7.02833 62.5403 7.05999 62.4969 7.09999C62.4569 7.13999 62.4253 7.18666 62.4019 7.23999C62.3786 7.29333 62.3669 7.35166 62.3669 7.41499V8.99999H61.5619Z" fill="#2564B7"/>
</svg>
