<svg width="16" height="13" viewBox="0 0 16 13" fill="none" xmlns="http://www.w3.org/2000/svg">
<path d="M3.768 11.76C3.248 11.76 2.728 11.684 2.208 11.532C1.696 11.38 1.28 11.184 0.959997 10.944L1.632 9.6C1.8 9.712 1.984 9.80799 2.184 9.88799C2.392 9.97599 2.608 10.044 2.832 10.092C3.056 10.14 3.284 10.164 3.516 10.164C3.924 10.164 4.256 10.104 4.512 9.984C4.768 9.864 4.96 9.68 5.088 9.432C5.216 9.192 5.28 8.88799 5.28 8.51999V7.45199L5.652 7.512C5.596 7.776 5.456 8.016 5.232 8.232C5.016 8.448 4.748 8.624 4.428 8.76C4.108 8.888 3.768 8.95199 3.408 8.95199C2.832 8.95199 2.316 8.81999 1.86 8.55599C1.412 8.28399 1.056 7.912 0.791997 7.44C0.535997 6.96 0.407997 6.408 0.407997 5.784C0.407997 5.144 0.535997 4.58 0.791997 4.092C1.048 3.596 1.4 3.20799 1.848 2.92799C2.296 2.63999 2.8 2.49599 3.36 2.49599C3.6 2.49599 3.828 2.52399 4.044 2.57999C4.268 2.636 4.472 2.712 4.656 2.80799C4.848 2.896 5.016 3.004 5.16 3.13199C5.312 3.25199 5.432 3.38399 5.52 3.52799C5.616 3.67199 5.68 3.81999 5.712 3.97199L5.316 4.068L5.388 2.628H7.212V8.484C7.212 9.004 7.132 9.464 6.972 9.864C6.82 10.272 6.592 10.616 6.288 10.896C5.992 11.184 5.632 11.4 5.208 11.544C4.784 11.688 4.304 11.76 3.768 11.76ZM3.816 7.46399C4.128 7.46399 4.396 7.396 4.62 7.25999C4.852 7.116 5.028 6.92 5.148 6.672C5.276 6.424 5.34 6.13199 5.34 5.79599C5.34 5.45999 5.276 5.168 5.148 4.92C5.028 4.664 4.852 4.468 4.62 4.332C4.396 4.188 4.128 4.116 3.816 4.116C3.512 4.116 3.248 4.188 3.024 4.332C2.8 4.468 2.624 4.664 2.496 4.92C2.376 5.168 2.316 5.45999 2.316 5.79599C2.316 6.13199 2.376 6.424 2.496 6.672C2.624 6.92 2.8 7.116 3.024 7.25999C3.248 7.396 3.512 7.46399 3.816 7.46399Z" fill="white"/>
<path d="M8.87934 9V0.119995H10.7633V3.924L10.3793 4.068C10.4673 3.77999 10.6233 3.51999 10.8473 3.288C11.0793 3.04799 11.3553 2.85599 11.6753 2.71199C11.9953 2.56799 12.3313 2.49599 12.6833 2.49599C13.1633 2.49599 13.5673 2.59599 13.8953 2.79599C14.2233 2.98799 14.4713 3.27999 14.6393 3.67199C14.8073 4.05599 14.8913 4.52799 14.8913 5.088V9H12.9593V5.24399C12.9593 4.98799 12.9233 4.776 12.8513 4.608C12.7793 4.44 12.6673 4.316 12.5153 4.236C12.3713 4.148 12.1913 4.108 11.9753 4.116C11.8073 4.116 11.6513 4.144 11.5073 4.2C11.3633 4.24799 11.2393 4.324 11.1353 4.428C11.0313 4.524 10.9473 4.636 10.8833 4.764C10.8273 4.892 10.7993 5.032 10.7993 5.184V9H9.85134C9.62734 9 9.43534 9 9.27534 9C9.11534 9 8.98334 9 8.87934 9Z" fill="white"/>
<path d="M8.384 12.033C8.302 12.033 8.238 12.01 8.192 11.964C8.148 11.918 8.126 11.852 8.126 11.766C8.126 11.686 8.15 11.621 8.198 11.571C8.246 11.521 8.308 11.496 8.384 11.496C8.466 11.496 8.53 11.52 8.576 11.568C8.622 11.614 8.645 11.68 8.645 11.766C8.645 11.844 8.621 11.908 8.573 11.958C8.525 12.008 8.462 12.033 8.384 12.033Z" fill="#2564B7"/>
<path d="M9.6825 12.03C9.5285 12.03 9.39051 11.994 9.26851 11.922C9.14651 11.85 9.0495 11.752 8.9775 11.628C8.9075 11.502 8.87251 11.36 8.87251 11.202C8.87251 11.044 8.9075 10.903 8.9775 10.779C9.0495 10.653 9.14651 10.554 9.26851 10.482C9.39051 10.41 9.5285 10.374 9.6825 10.374C9.8245 10.374 9.95451 10.399 10.0725 10.449C10.1925 10.499 10.2875 10.569 10.3575 10.659L10.0965 10.971C10.0685 10.939 10.0355 10.909 9.99751 10.881C9.95951 10.853 9.9175 10.831 9.8715 10.815C9.8255 10.799 9.7775 10.791 9.7275 10.791C9.6515 10.791 9.5845 10.809 9.5265 10.845C9.4685 10.879 9.42351 10.927 9.39151 10.989C9.35951 11.051 9.3435 11.122 9.3435 11.202C9.3435 11.278 9.35951 11.347 9.39151 11.409C9.42551 11.471 9.4715 11.52 9.5295 11.556C9.5875 11.592 9.6535 11.61 9.7275 11.61C9.7795 11.61 9.8275 11.604 9.8715 11.592C9.9155 11.578 9.9555 11.558 9.9915 11.532C10.0295 11.506 10.0645 11.474 10.0965 11.436L10.3545 11.751C10.2865 11.837 10.1915 11.905 10.0695 11.955C9.9495 12.005 9.8205 12.03 9.6825 12.03Z" fill="#2564B7"/>
<path d="M11.3683 12.03C11.2023 12.03 11.0543 11.994 10.9243 11.922C10.7963 11.85 10.6943 11.752 10.6183 11.628C10.5443 11.504 10.5073 11.362 10.5073 11.202C10.5073 11.042 10.5443 10.9 10.6183 10.776C10.6943 10.652 10.7963 10.554 10.9243 10.482C11.0543 10.41 11.2023 10.374 11.3683 10.374C11.5343 10.374 11.6813 10.41 11.8093 10.482C11.9393 10.554 12.0413 10.652 12.1153 10.776C12.1893 10.9 12.2263 11.042 12.2263 11.202C12.2263 11.362 12.1893 11.504 12.1153 11.628C12.0413 11.752 11.9393 11.85 11.8093 11.922C11.6813 11.994 11.5343 12.03 11.3683 12.03ZM11.3683 11.616C11.4403 11.616 11.5043 11.598 11.5603 11.562C11.6163 11.526 11.6603 11.477 11.6923 11.415C11.7243 11.353 11.7393 11.282 11.7373 11.202C11.7393 11.122 11.7243 11.051 11.6923 10.989C11.6603 10.925 11.6163 10.875 11.5603 10.839C11.5043 10.803 11.4403 10.785 11.3683 10.785C11.2963 10.785 11.2313 10.803 11.1733 10.839C11.1173 10.875 11.0733 10.925 11.0413 10.989C11.0093 11.051 10.9943 11.122 10.9963 11.202C10.9943 11.282 11.0093 11.353 11.0413 11.415C11.0733 11.477 11.1173 11.526 11.1733 11.562C11.2313 11.598 11.2963 11.616 11.3683 11.616Z" fill="#2564B7"/>
<path d="M12.5371 12V10.407H12.9931L13.0081 10.695L12.9451 10.698C12.9691 10.646 12.9991 10.6 13.0351 10.56C13.0731 10.52 13.1151 10.487 13.1611 10.461C13.2091 10.433 13.2581 10.412 13.3081 10.398C13.3601 10.384 13.4121 10.377 13.4641 10.377C13.5421 10.377 13.6131 10.389 13.6771 10.413C13.7411 10.437 13.7971 10.476 13.8451 10.53C13.8931 10.582 13.9311 10.653 13.9591 10.743L13.8841 10.737L13.9081 10.689C13.9341 10.641 13.9671 10.598 14.0071 10.56C14.0491 10.52 14.0951 10.487 14.1451 10.461C14.1951 10.433 14.2471 10.412 14.3011 10.398C14.3551 10.384 14.4071 10.377 14.4571 10.377C14.5831 10.377 14.6881 10.402 14.7721 10.452C14.8561 10.5 14.9191 10.573 14.9611 10.671C15.0051 10.769 15.0271 10.888 15.0271 11.028V12H14.5441V11.067C14.5441 11.003 14.5351 10.95 14.5171 10.908C14.4991 10.866 14.4721 10.835 14.4361 10.815C14.4021 10.793 14.3591 10.782 14.3071 10.782C14.2651 10.782 14.2261 10.789 14.1901 10.803C14.1561 10.817 14.1261 10.836 14.1001 10.86C14.0761 10.884 14.0571 10.912 14.0431 10.944C14.0291 10.976 14.0221 11.012 14.0221 11.052V12H13.5391V11.064C13.5391 11.004 13.5301 10.953 13.5121 10.911C13.4941 10.869 13.4671 10.837 13.4311 10.815C13.3951 10.793 13.3531 10.782 13.3051 10.782C13.2631 10.782 13.2241 10.789 13.1881 10.803C13.1541 10.817 13.1241 10.836 13.0981 10.86C13.0741 10.884 13.0551 10.912 13.0411 10.944C13.0271 10.976 13.0201 11.011 13.0201 11.049V12H12.5371Z" fill="#2564B7"/>
</svg>
