<svg width="7" height="6" viewBox="0 0 7 6" fill="none" xmlns="http://www.w3.org/2000/svg">
<path fill-rule="evenodd" clip-rule="evenodd" d="M1 0.5C0.723858 0.5 0.5 0.723858 0.5 1C0.5 1.27614 0.723858 1.5 1 1.5H6C6.27614 1.5 6.5 1.27614 6.5 1C6.5 0.723858 6.27614 0.5 6 0.5H1ZM0.5 3C0.5 2.72386 0.723858 2.5 1 2.5H6C6.27614 2.5 6.5 2.72386 6.5 3C6.5 3.27614 6.27614 3.5 6 3.5H1C0.723858 3.5 0.5 3.27614 0.5 3ZM0.5 5C0.5 4.72386 0.723858 4.5 1 4.5H6C6.27614 4.5 6.5 4.72386 6.5 5C6.5 5.27614 6.27614 5.5 6 5.5H1C0.723858 5.5 0.5 5.27614 0.5 5Z" fill="white"/>
</svg>
