<svg width="12" height="12" viewBox="0 0 12 12" fill="none" xmlns="http://www.w3.org/2000/svg">
<path fill-rule="evenodd" clip-rule="evenodd" d="M1 0.75H11C11.1381 0.75 11.25 0.861929 11.25 1V11C11.25 11.1381 11.1381 11.25 11 11.25H1C0.861929 11.25 0.75 11.1381 0.75 11V1C0.75 0.861929 0.861929 0.75 1 0.75ZM0 1C0 0.447715 0.447715 0 1 0H11C11.5523 0 12 0.447715 12 1V11C12 11.5523 11.5523 12 11 12H1C0.447715 12 0 11.5523 0 11V1ZM6 2.5C6.27614 2.5 6.5 2.72386 6.5 3V7.5C6.5 7.77614 6.27614 8 6 8C5.72386 8 5.5 7.77614 5.5 7.5V3C5.5 2.72386 5.72386 2.5 6 2.5ZM6.5 9C6.5 9.27614 6.27614 9.5 6 9.5C5.72386 9.5 5.5 9.27614 5.5 9C5.5 8.72386 5.72386 8.5 6 8.5C6.27614 8.5 6.5 8.72386 6.5 9Z" fill="white"/>
</svg>
