<svg width="6" height="11" viewBox="0 0 6 11" fill="none" xmlns="http://www.w3.org/2000/svg">
<path fill-rule="evenodd" clip-rule="evenodd" d="M1 0.75H5C5.13807 0.75 5.25 0.861929 5.25 1V10C5.25 10.1381 5.13807 10.25 5 10.25H1C0.861929 10.25 0.75 10.1381 0.75 10V1C0.75 0.861929 0.861929 0.75 1 0.75ZM0 1C0 0.447715 0.447715 0 1 0H5C5.55228 0 6 0.447715 6 1V10C6 10.5523 5.55228 11 5 11H1C0.447715 11 0 10.5523 0 10V1ZM3 2C3.27614 2 3.5 2.22386 3.5 2.5V7C3.5 7.27614 3.27614 7.5 3 7.5C2.72386 7.5 2.5 7.27614 2.5 7V2.5C2.5 2.22386 2.72386 2 3 2ZM3.5 8.5C3.5 8.77614 3.27614 9 3 9C2.72386 9 2.5 8.77614 2.5 8.5C2.5 8.22386 2.72386 8 3 8C3.27614 8 3.5 8.22386 3.5 8.5Z" fill="white"/>
</svg>
