<svg width="12" height="12" viewBox="0 0 12 12" fill="none" xmlns="http://www.w3.org/2000/svg">
<path fill-rule="evenodd" clip-rule="evenodd" d="M1 0.75H11C11.1381 0.75 11.25 0.861929 11.25 1V11C11.25 11.1381 11.1381 11.25 11 11.25H1C0.861929 11.25 0.75 11.1381 0.75 11V1C0.75 0.861929 0.861929 0.75 1 0.75ZM0 1C0 0.447715 0.447715 0 1 0H11C11.5523 0 12 0.447715 12 1V11C12 11.5523 11.5523 12 11 12H1C0.447715 12 0 11.5523 0 11V1ZM6 1.5C6.55228 1.5 7 1.94772 7 2.5V6.5C7 7.05228 6.55228 7.5 6 7.5C5.44772 7.5 5 7.05228 5 6.5V2.5C5 1.94772 5.44772 1.5 6 1.5ZM7 9.5C7 10.0523 6.55228 10.5 6 10.5C5.44772 10.5 5 10.0523 5 9.5C5 8.94772 5.44772 8.5 6 8.5C6.55228 8.5 7 8.94772 7 9.5Z" fill="white"/>
</svg>
