<svg width="10" height="10" viewBox="0 0 10 10" fill="none" xmlns="http://www.w3.org/2000/svg">
<path fill-rule="evenodd" clip-rule="evenodd" d="M1 0.75H9C9.13807 0.75 9.25 0.861929 9.25 1V9C9.25 9.13807 9.13807 9.25 9 9.25H1C0.861929 9.25 0.75 9.13807 0.75 9V1C0.75 0.861929 0.861929 0.75 1 0.75ZM0 1C0 0.447715 0.447715 0 1 0H9C9.55228 0 10 0.447715 10 1V9C10 9.55228 9.55229 10 9 10H1C0.447715 10 0 9.55229 0 9V1ZM5 1.5C5.27614 1.5 5.5 1.72386 5.5 2V6.5C5.5 6.77614 5.27614 7 5 7C4.72386 7 4.5 6.77614 4.5 6.5V2C4.5 1.72386 4.72386 1.5 5 1.5ZM5.5 8C5.5 8.27614 5.27614 8.5 5 8.5C4.72386 8.5 4.5 8.27614 4.5 8C4.5 7.72386 4.72386 7.5 5 7.5C5.27614 7.5 5.5 7.72386 5.5 8Z" fill="white"/>
</svg>
